<?xml version="1.0" encoding="UTF-8" standalone="no"?>
<svg
   version="1.1"
   id="Layer_1"
   x="0px"
   y="0px"
   width="1024"
   viewBox="0 0 1024 1024"
   enable-background="new 0 0 548 456"
   xml:space="preserve"
   sodipodi:docname="logo.svg"
   inkscape:version="1.3.2 (091e20e, 2023-11-25, custom)"
   height="1024"
   inkscape:export-filename="logo-ofc.png"
   inkscape:export-xdpi="96"
   inkscape:export-ydpi="96"
   xmlns:inkscape="http://www.inkscape.org/namespaces/inkscape"
   xmlns:sodipodi="http://sodipodi.sourceforge.net/DTD/sodipodi-0.dtd"
   xmlns="http://www.w3.org/2000/svg"
   xmlns:svg="http://www.w3.org/2000/svg"><defs
   id="defs33" /><sodipodi:namedview
   id="namedview33"
   pagecolor="#000000"
   bordercolor="#000000"
   borderopacity="0.25"
   inkscape:showpageshadow="2"
   inkscape:pageopacity="0.0"
   inkscape:pagecheckerboard="0"
   inkscape:deskcolor="#d1d1d1"
   inkscape:zoom="0.5"
   inkscape:cx="302"
   inkscape:cy="403"
   inkscape:window-width="1920"
   inkscape:window-height="1017"
   inkscape:window-x="-8"
   inkscape:window-y="-8"
   inkscape:window-maximized="1"
   inkscape:current-layer="Layer_1"
   inkscape:export-bgcolor="#00000000" />

<rect
   style="fill:none"
   id="rect38"
   width="1024"
   height="1024"
   x="0"
   y="0" /><path
   id="path2"
   d="m 555.34307,229.05651 c -45.96476,-0.80749 -81.45377,7.5651 -89.81129,10.49055 -90.30922,29.02465 -163.99335,108.10684 -183.79361,203.35204 -8.87261,24.24346 -9.69338,63.97222 -9.69338,63.97222 0,0 -62.70802,72.84924 -75.48898,110.82437 -16.0067,38.68994 7.37706,81.22718 40.69482,100.83047 62.97392,40.18621 135.20737,64.55192 208.62061,74.63084 49.73521,8.79621 97.15713,-12.45114 143.34523,-28.05884 63.14291,-26.67769 126.81129,-53.19061 186.06586,-88.18017 88.94717,-49.2887 87.21729,-136.47062 58.16033,-153.50222 C 808.28708,277.03945 656.46567,230.83298 555.34307,229.05651 Z m 4.36029,27.17763 C 328.02532,319.80788 304.25925,582.58487 304.2683,577.63347 271.70754,549.40658 273.67853,252.60306 559.70336,256.23414 Z m 31.25268,14.85587 c 24.74377,-0.54154 49.6481,4.89191 73.99317,17.10221 -96.89773,20.08625 -190.0772,71.62383 -255.14877,360.84523 -29.9158,-1.88896 -70.55592,-27.4273 -84.916,-43.74245 31.34987,-190.2805 146.85133,-331.59574 266.0716,-334.20499 z m 71.78337,41.76607 c 43.86437,-0.0864 78.01136,24.3231 86.94437,43.79593 -147.95111,-16.84809 -230.08227,153.59225 -240.187,304.48304 -18.98839,4.9027 -58.28095,0.80764 -75.33231,-7.47505 55.3649,-272.47439 155.46745,-340.6601 228.57494,-340.80392 z m 62.87636,69.18056 c 5.81141,0.008 11.07009,0.9654 15.63131,2.86521 47.70645,8.17053 52.91574,93.40169 65.35756,152.76363 C 699.17658,635.46414 560.39039,663.28607 535.9189,658.55507 561.75285,470.82982 669.43956,381.96587 725.61577,382.03664 Z M 265.75341,555.69985 c 24.02094,102.15029 237.21554,240.87566 557.98834,8.60841 10.14025,63.75887 -184.25981,169.5603 -345.01252,203.99642 -60.464,12.95248 -253.40165,-44.35043 -263.98121,-124.226 -2.92388,-22.07529 22.74489,-61.09185 51.00539,-88.37883 z"
   style="fill:#f9f9f9;stroke-width:1.28903" />

















<path
   fill="#ced6e2"
   opacity="1"
   stroke="none"
   d="m 137.20767,314.90527 c -0.001,0.0166 0.20052,-0.0726 0.0933,-0.0251 -0.10724,0.0475 -0.0921,0.009 -0.0933,0.0251 z"
   id="path20" />





<path
   fill="#ced6e2"
   opacity="1"
   stroke="none"
   d="m 118.52609,298.57263 c -0.0574,0.0369 0.0574,-0.0369 0,0 z"
   id="path26" />






<path
   fill="#ced6e2"
   opacity="1"
   stroke="none"
   d="m 119.99686,301.00256 c -0.1301,-0.15399 -0.25706,-0.31054 -0.38402,-0.46707 0.096,0.0515 0.19209,0.103 0.34015,0.30646 0.052,0.15195 0.047,0.15805 0.0439,0.16061 z"
   id="path33" />
</svg>
